<?xml version="1.0" standalone="no"?>
<!DOCTYPE svg PUBLIC "-//W3C//DTD SVG 20010904//EN"
 "http://www.w3.org/TR/2001/REC-SVG-20010904/DTD/svg10.dtd">
<svg version="1.0" xmlns="http://www.w3.org/2000/svg"
 width="300.000000pt" height="279.000000pt" viewBox="0 0 300.000000 279.000000"
 preserveAspectRatio="xMidYMid meet">

<g transform="translate(0.000000,279.000000) scale(0.100000,-0.100000)"
fill="#000000" stroke="none">
<path d="M667 2748 l-48 -33 1 -662 c0 -728 2 -746 60 -888 218 -521 853 -711
1321 -394 180 121 320 329 363 540 13 65 16 178 16 740 l1 664 -48 33 c-26 17
-51 32 -55 32 -4 0 -8 -316 -10 -702 l-3 -703 -28 -90 c-89 -286 -317 -490
-603 -540 -109 -19 -159 -19 -269 0 -323 57 -573 315 -624 643 -7 46 -11 304
-11 731 0 364 -3 661 -8 661 -4 0 -29 -15 -55 -32z"/>
<path d="M362 2477 l-53 -62 4 -550 c3 -528 4 -553 25 -635 61 -236 157 -406
322 -571 226 -227 517 -349 834 -349 309 0 593 110 813 315 193 179 322 418
368 682 12 68 15 189 15 597 l0 511 -60 65 -59 65 -1 -585 c0 -531 -2 -593
-19 -675 -78 -378 -362 -694 -726 -808 -120 -38 -197 -49 -330 -49 -288 1
-527 98 -737 300 -141 136 -233 287 -295 487 l-28 90 -3 618 c-2 339 -6 617
-10 616 -4 0 -31 -28 -60 -62z"/>
<path d="M93 2015 c-31 -85 -60 -197 -74 -290 -18 -116 -16 -360 5 -480 105
-617 594 -1108 1216 -1221 130 -24 390 -24 523 0 399 72 759 309 984 648 165
250 247 523 247 828 0 175 -21 311 -73 465 l-36 110 -5 -375 c-5 -337 -8 -385
-28 -477 -59 -273 -190 -514 -382 -703 -264 -260 -603 -400 -970 -400 -652 0
-1204 447 -1352 1095 -18 79 -21 137 -27 475 l-6 385 -22 -60z"/>
<path d="M1991 1699 c-1 -36 -10 -101 -21 -144 -79 -310 -337 -525 -663 -552
-58 -5 -67 -8 -49 -16 12 -6 22 -14 22 -18 0 -5 7 -6 15 -3 8 4 15 1 15 -5 0
-6 7 -8 15 -5 8 4 15 1 15 -6 0 -7 7 -10 15 -7 8 4 17 2 19 -2 11 -17 133 -21
216 -7 235 41 415 218 466 456 17 80 13 212 -7 236 -6 7 -8 18 -4 24 3 5 1 10
-5 10 -7 0 -10 7 -6 15 3 8 1 15 -5 15 -6 0 -9 7 -5 15 3 8 2 15 -3 15 -4 0
-13 10 -19 23 -9 18 -11 11 -11 -44z"/>
</g>
</svg>
