<?xml version="1.0" encoding="UTF-8" standalone="no"?>
<!-- Generator: Adobe Illustrator 22.1.0, SVG Export Plug-In . SVG Version: 6.00 Build 0)  -->

<svg
   version="1.1"
   id="Ebene_1"
   x="0px"
   y="0px"
   width="73"
   height="67"
   viewBox="0 0 73 67"
   xml:space="preserve"
   sodipodi:docname="fuhagen.svg"
   inkscape:version="1.2.1 (9c6d41e410, 2022-07-14)"
   xmlns:inkscape="http://www.inkscape.org/namespaces/inkscape"
   xmlns:sodipodi="http://sodipodi.sourceforge.net/DTD/sodipodi-0.dtd"
   xmlns="http://www.w3.org/2000/svg"
   xmlns:svg="http://www.w3.org/2000/svg"><defs
   id="defs70" /><sodipodi:namedview
   id="namedview68"
   pagecolor="#ffffff"
   bordercolor="#000000"
   borderopacity="0.25"
   inkscape:showpageshadow="2"
   inkscape:pageopacity="0.0"
   inkscape:pagecheckerboard="0"
   inkscape:deskcolor="#d1d1d1"
   showgrid="false"
   inkscape:zoom="3.2296919"
   inkscape:cx="178.80963"
   inkscape:cy="33.439722"
   inkscape:window-width="3440"
   inkscape:window-height="1369"
   inkscape:window-x="3832"
   inkscape:window-y="183"
   inkscape:window-maximized="1"
   inkscape:current-layer="Ebene_1" />
<style
   type="text/css"
   id="style9">
	.st0{fill:#004C97;}
	.st1{fill:#004C97;stroke:#004C97;stroke-width:0.2395;stroke-miterlimit:22.9256;}
</style>

<path
   class="st1"
   d="M 64.5,9.3 V 30.7 C 64.5,46.2 51.9,58.8 36.4,58.8 20.9,58.8 8.3,46.2 8.3,30.7 V 9.2 C 9.1,8.1 10,7 11,6 V 30.7 C 11,44.7 22.3,56 36.3,56 50.3,56 61.6,44.7 61.6,30.7 V 6 c 1.1,1 2,2.1 2.9,3.3 z"
   id="path59" />
<path
   class="st1"
   d="M 15.5,30.7 V 2.2 c 0.9,-0.7 1.8,-1.3 2.8,-1.9 v 30.4 c 0,10 8.1,18 18.1,18 10,0 18.1,-8.1 18.1,-18 V 0.3 c 1,0.6 1.9,1.2 2.8,1.9 v 28.5 c 0,11.5 -9.4,20.9 -20.9,20.9 -11.5,0 -20.9,-9.4 -20.9,-20.9 z"
   id="path61" />
<path
   class="st1"
   d="M 68.9,30.7 V 16.9 c 1.8,4.3 2.8,8.9 2.8,13.9 0,19.5 -15.8,35.3 -35.3,35.3 C 16.9,66.1 1,50.2 1,30.7 1,25.7 2,21 3.8,16.8 v 13.9 c 0,17.9 14.6,32.5 32.5,32.5 17.9,0 32.5,-14.5 32.6,-32.5 z"
   id="path63" />
<path
   class="st0"
   d="m 36.5,16.8 c -7.6,0 -13.8,6.2 -13.8,13.8 0,7.6 6.2,13.8 13.8,13.8 7.6,0 13.8,-6.2 13.8,-13.8 C 50.3,23 44,16.8 36.5,16.8 Z m -5,8.4 c -2.9,3.3 -2.8,6.4 -4.3,5.6 -1.5,-0.8 -2.4,-4.6 1.2,-8.6 3.6,-4 7.2,-2.8 8.2,-1.5 1,1.6 -2.1,1.2 -5.1,4.5 z"
   id="path65" />
</svg>
