<?xml version="1.0" encoding="UTF-8" standalone="no"?>
<!-- Generator: Adobe Illustrator 25.2.0, SVG Export Plug-In . SVG Version: 6.00 Build 0)  -->

<svg
   version="1.1"
   id="Ebene_1"
   x="0px"
   y="0px"
   viewBox="0 0 40.61 40.49"
   xml:space="preserve"
   sodipodi:docname="sips_.svg"
   width="40.610001"
   height="40.490002"
   inkscape:version="1.2.1 (9c6d41e410, 2022-07-14)"
   xmlns:inkscape="http://www.inkscape.org/namespaces/inkscape"
   xmlns:sodipodi="http://sodipodi.sourceforge.net/DTD/sodipodi-0.dtd"
   xmlns="http://www.w3.org/2000/svg"
   xmlns:svg="http://www.w3.org/2000/svg"><defs
   id="defs269" /><sodipodi:namedview
   id="namedview267"
   pagecolor="#ffffff"
   bordercolor="#000000"
   borderopacity="0.25"
   inkscape:showpageshadow="2"
   inkscape:pageopacity="0.0"
   inkscape:pagecheckerboard="0"
   inkscape:deskcolor="#d1d1d1"
   showgrid="false"
   inkscape:zoom="7.3539068"
   inkscape:cx="-21.55317"
   inkscape:cy="37.259107"
   inkscape:window-width="3440"
   inkscape:window-height="1369"
   inkscape:window-x="3832"
   inkscape:window-y="183"
   inkscape:window-maximized="1"
   inkscape:current-layer="Ebene_1" />
<style
   type="text/css"
   id="style140">
	.st0{fill:#1D1D1B;}
	.st1{fill:#F9B522;}
</style>

<g
   id="g254"
   transform="translate(-8.9748214,-9.1108035)">
	<path
   class="st1"
   d="m 47.84,26.24 c 0.96,6.02 -0.99,12.4 -5.8,16.84 -4.8,4.44 -11.31,5.9 -17.24,4.47 l 5.78,-5.35 v 0 l -0.68,-0.73 -6.23,5.76 c 0,0 0,0 0,0 l -0.85,0.79 c 0,0 0,0 0,0 0.37,0.13 0.75,0.22 1.12,0.32 0,0 0,0 0,0 6.4,1.77 13.55,0.31 18.78,-4.53 5.23,-4.83 7.24,-11.85 5.98,-18.37 -0.07,-0.38 -0.14,-0.77 -0.24,-1.14 l -0.85,0.79 c 0.08,0.39 0.17,0.77 0.23,1.15 z"
   id="path250" />
	<path
   class="st1"
   d="m 10.65,32.25 c -0.96,-6.02 0.99,-12.4 5.8,-16.84 4.8,-4.44 11.31,-5.9 17.24,-4.47 l -6,5.55 v 0 l 0.68,0.73 6.45,-5.96 c 0,0 0,0 0,0 l 0.85,-0.79 c 0,0 0,0 0,0 -0.37,-0.13 -0.75,-0.22 -1.12,-0.32 0,0 0,0 0,0 C 28.14,8.38 21,9.84 15.77,14.68 10.54,19.51 8.53,26.53 9.79,33.05 c 0.07,0.38 0.14,0.77 0.24,1.14 L 10.88,33.4 C 10.8,33.02 10.71,32.64 10.65,32.25 Z"
   id="path252" />
</g>
<g
   id="g264"
   transform="translate(-8.9748214,-9.1108035)">
	<path
   class="st0"
   d="m 18.86,34.12 c -0.74,0 -1.51,-0.11 -2.24,-0.28 v -0.97 c 0.73,0.35 1.64,0.62 2.44,0.62 1.18,0 1.96,-0.53 1.96,-1.78 0,-2.37 -4.5,-2.02 -4.5,-4.96 0,-1.76 1.53,-2.37 3.05,-2.37 0.7,0 1.39,0.08 2.07,0.22 v 0.98 c -0.73,-0.34 -1.51,-0.57 -2.31,-0.57 -0.87,0 -1.7,0.43 -1.7,1.4 0,2.21 4.62,1.93 4.62,5 0.01,1.98 -1.66,2.71 -3.39,2.71 z"
   id="path256" />
	<path
   class="st0"
   d="m 24.54,33.96 v -7.83 c 0,-1.02 -0.57,-0.94 -1.4,-1.04 v -0.24 l 2.62,-0.32 v 9.43 z"
   id="path258" />
	<path
   class="st0"
   d="m 30.04,29.42 v 4.54 h -1.22 v -7.94 c 0,-1.02 -0.48,-1.12 -1.4,-1.25 v -0.24 h 3.39 c 1.83,0 3.81,0.07 3.81,2.45 0,2.67 -2.67,2.44 -4.58,2.44 z m 1.19,-4.34 c -0.92,0 -1.19,-0.03 -1.19,0.94 v 2.86 h 0.6 c 1.42,0 2.61,-0.15 2.61,-1.89 0,-1.35 -0.73,-1.91 -2.02,-1.91 z"
   id="path260" />
	<path
   class="st0"
   d="m 38.57,34.12 c -0.74,0 -1.51,-0.11 -2.24,-0.28 v -0.97 c 0.73,0.35 1.64,0.62 2.44,0.62 1.18,0 1.96,-0.53 1.96,-1.78 0,-2.37 -4.5,-2.02 -4.5,-4.96 0,-1.76 1.53,-2.37 3.05,-2.37 0.7,0 1.39,0.08 2.07,0.22 v 0.98 c -0.73,-0.34 -1.51,-0.57 -2.31,-0.57 -0.87,0 -1.7,0.43 -1.7,1.4 0,2.21 4.62,1.93 4.62,5 0.01,1.98 -1.65,2.71 -3.39,2.71 z"
   id="path262" />
</g>
</svg>
