<?xml version="1.0" standalone="no"?>
<!DOCTYPE svg PUBLIC "-//W3C//DTD SVG 20010904//EN"
 "http://www.w3.org/TR/2001/REC-SVG-20010904/DTD/svg10.dtd">
<svg version="1.0" xmlns="http://www.w3.org/2000/svg"
 width="1310.000000pt" height="580.000000pt" viewBox="0 0 1310.000000 580.000000"
 preserveAspectRatio="xMidYMid meet">

<g transform="translate(0.000000,580.000000) scale(0.100000,-0.100000)"
fill="#000000" stroke="none">
<path d="M6567 3380 c-60 -10 -68 -17 -32 -26 15 -4 30 -17 36 -31 5 -13 9
-130 9 -259 l0 -234 29 0 29 0 4 119 c3 114 4 121 33 163 38 52 77 70 103 45
14 -15 17 -42 20 -172 l3 -155 30 0 30 0 -3 166 -3 166 -28 24 c-19 16 -40 24
-64 24 -30 0 -44 -8 -80 -45 l-43 -45 0 135 c0 102 -3 135 -12 134 -7 -1 -35
-5 -61 -9z"/>
<path d="M8077 3380 c-60 -10 -68 -17 -32 -26 15 -4 30 -17 36 -31 5 -13 9
-130 9 -259 l0 -234 29 0 29 0 4 119 c3 114 4 121 33 163 17 23 43 47 59 53
24 8 31 6 47 -14 17 -20 19 -41 19 -172 l0 -149 31 0 30 0 -3 166 -3 166 -28
24 c-19 16 -40 24 -64 24 -30 0 -44 -8 -80 -45 l-43 -45 0 135 c0 102 -3 135
-12 134 -7 -1 -35 -5 -61 -9z"/>
<path d="M5562 3369 c-111 -21 -153 -122 -90 -212 11 -15 54 -46 96 -69 102
-56 132 -86 132 -133 0 -27 -8 -44 -29 -66 -25 -25 -37 -29 -84 -29 -30 0 -73
7 -96 15 l-41 14 0 -29 c0 -27 3 -29 56 -36 162 -20 264 38 264 149 0 73 -35
113 -158 177 -35 19 -72 45 -83 58 -38 49 -15 113 48 128 24 6 81 -2 141 -21
19 -6 22 -4 22 19 0 15 -6 28 -12 30 -32 10 -127 13 -166 5z"/>
<path d="M7278 3369 c-35 -20 -19 -79 21 -79 51 0 69 46 29 74 -26 19 -27 19
-50 5z"/>
<path d="M10596 3367 c-12 -9 -17 -23 -14 -42 2 -25 8 -31 33 -33 19 -3 33 2
42 14 17 24 17 30 -7 54 -24 24 -30 24 -54 7z"/>
<path d="M9392 3358 c-39 -6 -69 -14 -66 -19 3 -5 15 -9 28 -9 44 0 46 -11 46
-262 l0 -238 35 0 35 0 0 270 c0 149 -1 269 -2 269 -2 -1 -36 -6 -76 -11z"/>
<path d="M1861 3350 c-144 -31 -227 -136 -206 -262 17 -103 68 -155 238 -244
173 -91 218 -148 204 -256 -6 -45 -28 -81 -71 -112 -24 -18 -42 -21 -129 -20
-85 0 -113 5 -169 27 l-68 26 0 -48 c0 -57 -5 -54 138 -71 163 -20 306 18 372
98 41 50 64 130 56 195 -15 111 -73 171 -256 268 -81 42 -134 77 -161 106 -35
39 -39 48 -39 96 0 94 55 137 174 137 54 0 140 -19 213 -47 11 -5 14 4 11 43
-3 46 -4 49 -38 56 -60 13 -223 18 -269 8z"/>
<path d="M3835 3350 c-143 -31 -208 -103 -208 -232 0 -117 53 -180 223 -267
179 -93 220 -136 220 -232 0 -62 -22 -105 -73 -143 -25 -18 -42 -21 -130 -20
-85 0 -113 5 -169 27 l-68 26 0 -48 c0 -57 -4 -55 142 -71 244 -27 405 60 425
230 3 26 0 72 -7 101 -19 77 -93 149 -225 216 -173 89 -225 139 -225 216 0 54
24 94 72 118 35 18 54 21 122 17 46 -3 107 -14 141 -27 32 -11 61 -21 63 -21
2 0 2 21 0 47 -3 45 -5 48 -38 55 -58 12 -222 18 -265 8z"/>
<path d="M5882 3338 c-29 -29 -2 -72 40 -66 17 2 24 11 26 32 5 41 -37 63 -66
34z"/>
<path d="M6022 3338 c-29 -29 -2 -72 40 -66 17 2 24 11 26 32 5 41 -37 63 -66
34z"/>
<path d="M2430 3324 c-52 -7 -98 -13 -102 -13 -5 -1 -8 -8 -8 -16 0 -11 11
-15 39 -15 28 0 49 -7 68 -24 l28 -24 3 -416 3 -416 60 0 59 0 0 470 0 470
-27 -1 c-16 -1 -71 -7 -123 -15z"/>
<path d="M2740 3332 c0 -11 13 -16 67 -27 18 -4 42 -18 53 -32 19 -25 20 -40
20 -449 l0 -424 65 0 65 0 0 223 0 224 123 6 c138 7 202 23 254 63 55 42 76
100 71 198 -4 108 -33 155 -116 194 -57 27 -59 27 -329 30 -181 3 -273 0 -273
-6z m467 -57 c64 -19 97 -57 112 -125 20 -94 -9 -173 -79 -214 -26 -16 -57
-21 -132 -24 l-98 -4 2 178 3 178 25 13 c34 17 106 16 167 -2z"/>
<path d="M10368 3293 c-19 -19 -28 -40 -28 -61 0 -29 -3 -32 -30 -32 -20 0
-30 -5 -30 -15 0 -10 10 -15 29 -15 l29 0 4 -155 c4 -183 5 -186 98 -193 50
-4 60 -2 60 12 0 11 -9 16 -28 16 -16 0 -37 6 -48 14 -17 13 -19 29 -22 160
l-3 146 50 0 c38 0 51 4 51 14 0 11 -14 16 -47 18 l-48 3 -5 58 -5 59 -27 -29z"/>
<path d="M10828 3293 c-19 -19 -28 -40 -28 -61 0 -29 -3 -32 -30 -32 -20 0
-30 -5 -30 -15 0 -10 10 -15 29 -15 l30 0 3 -155 c4 -183 5 -186 98 -193 50
-4 60 -2 60 12 0 11 -9 16 -30 16 -17 0 -39 9 -50 20 -18 18 -20 33 -20 160
l0 140 50 0 c38 0 50 4 50 15 0 11 -12 15 -50 15 l-49 0 -3 61 -3 60 -27 -28z"/>
<path d="M11528 3296 c-22 -17 -28 -30 -28 -59 0 -34 -2 -37 -30 -37 -20 0
-30 -5 -30 -15 0 -10 10 -15 30 -15 l30 0 0 -150 c0 -147 1 -152 25 -175 20
-21 34 -25 80 -25 42 0 55 3 55 15 0 10 -10 15 -28 15 -15 0 -38 7 -50 16 -21
14 -22 22 -22 160 l0 144 50 0 c38 0 50 4 50 15 0 11 -12 15 -50 15 l-49 0 -3
59 -3 59 -27 -22z"/>
<path d="M5904 3196 c-32 -14 -64 -51 -64 -73 0 -8 13 -13 35 -13 19 0 35 5
35 10 0 19 48 60 70 60 38 0 60 -35 60 -94 l0 -53 -60 -6 c-111 -10 -169 -73
-136 -150 26 -62 95 -76 160 -32 34 23 36 23 36 5 0 -16 7 -20 35 -20 l35 0 0
128 c-1 208 -17 243 -117 249 -35 2 -70 -2 -89 -11z m136 -230 c0 -102 -113
-148 -135 -56 -11 47 47 95 118 99 14 1 17 -7 17 -43z"/>
<path d="M6294 3196 c-55 -24 -79 -70 -82 -161 -4 -104 21 -159 88 -192 59
-31 180 -32 180 -2 0 5 -13 9 -29 9 -64 0 -131 46 -157 107 -8 18 -14 62 -14
98 0 60 3 69 29 96 42 42 92 35 111 -17 8 -19 17 -24 45 -24 39 0 44 13 19 49
-33 47 -126 65 -190 37z"/>
<path d="M6994 3194 c-54 -26 -72 -101 -34 -142 12 -12 48 -36 80 -52 33 -17
67 -42 77 -56 15 -24 15 -29 2 -53 -26 -46 -79 -51 -161 -16 -14 6 -18 2 -18
-18 0 -26 27 -37 95 -37 98 0 145 36 145 110 0 60 -15 79 -105 127 -57 31 -71
43 -73 65 -2 20 4 31 23 44 27 18 58 15 118 -11 13 -6 17 -2 17 18 0 19 -6 26
-31 31 -52 10 -102 6 -135 -10z"/>
<path d="M7290 3203 c-53 -8 -70 -14 -70 -23 0 -6 9 -10 20 -10 32 0 40 -39
40 -196 l0 -144 30 0 30 0 0 190 c0 146 -3 190 -12 189 -7 -1 -24 -3 -38 -6z"/>
<path d="M7484 3203 c-37 -7 -69 -50 -69 -93 0 -47 22 -73 90 -107 104 -52
126 -106 58 -142 -31 -16 -62 -13 -110 9 l-43 19 0 -28 c0 -24 5 -30 31 -35
135 -27 231 28 215 122 -7 47 -29 68 -108 108 -79 40 -98 74 -58 106 27 22 45
22 99 3 40 -14 41 -14 41 9 0 18 -7 25 -31 30 -33 6 -80 6 -115 -1z"/>
<path d="M7804 3196 c-55 -24 -79 -70 -82 -161 -4 -104 21 -159 88 -192 44
-23 118 -30 168 -17 34 9 26 24 -12 24 -46 0 -85 16 -119 48 -40 38 -57 85
-57 159 0 58 3 67 29 94 42 42 92 35 111 -17 8 -19 17 -24 45 -24 39 0 44 13
19 49 -33 47 -126 65 -190 37z"/>
<path d="M8551 3192 c-62 -31 -76 -61 -76 -165 0 -80 3 -97 24 -131 15 -24 40
-45 65 -57 61 -28 186 -24 186 6 0 9 -13 11 -42 8 -64 -6 -116 27 -150 96 -16
30 -28 67 -28 83 l0 28 115 0 115 0 0 31 c0 94 -115 150 -209 101z m114 -37
c14 -13 25 -33 25 -45 0 -18 -6 -20 -80 -20 -44 0 -80 2 -80 5 0 4 7 20 16 36
26 52 81 63 119 24z"/>
<path d="M8874 3194 c-33 -16 -54 -50 -54 -88 0 -35 35 -73 93 -102 99 -50
122 -93 71 -133 -32 -25 -57 -26 -114 -6 -53 19 -50 19 -50 -9 0 -27 28 -36
109 -36 67 0 113 28 129 78 22 66 -3 105 -98 157 -61 33 -76 45 -78 67 -2 20
4 31 23 44 27 18 58 15 118 -11 13 -6 17 -2 17 18 0 19 -6 26 -31 31 -52 10
-102 6 -135 -10z"/>
<path d="M9617 3200 c-61 -11 -65 -15 -30 -32 l28 -13 3 -163 2 -162 30 0 30
0 0 93 c0 117 13 162 60 209 40 41 69 47 94 22 13 -13 16 -43 16 -170 l0 -154
30 0 30 0 0 169 c0 183 -3 194 -56 207 -46 12 -93 -5 -135 -48 l-39 -40 0 46
c0 25 -3 45 -7 45 -5 -1 -30 -5 -56 -9z"/>
<path d="M10054 3200 c-31 -12 -64 -59 -64 -90 0 -38 33 -76 93 -106 99 -50
122 -93 71 -133 -32 -25 -57 -26 -114 -6 -53 19 -50 19 -50 -9 0 -18 7 -25 31
-30 106 -21 185 6 208 71 13 36 12 43 -5 78 -15 30 -35 48 -94 80 -61 33 -76
45 -78 67 -2 20 4 31 23 44 27 18 58 15 118 -11 13 -6 17 -2 17 18 0 19 -6 26
-31 31 -43 8 -99 7 -125 -4z"/>
<path d="M10587 3200 c-61 -11 -65 -15 -30 -32 l28 -13 3 -163 2 -162 35 0 35
0 0 190 c0 146 -3 190 -12 189 -7 -1 -35 -5 -61 -9z"/>
<path d="M11051 3199 c-56 -11 -59 -14 -24 -31 l28 -13 5 -135 c5 -147 13
-170 60 -190 49 -20 100 -7 138 36 l32 37 0 -36 c0 -34 2 -37 30 -37 l30 0 0
190 0 190 -42 -6 c-24 -4 -52 -10 -63 -14 -17 -6 -16 -8 10 -21 29 -14 30 -17
33 -89 4 -91 -9 -139 -49 -185 -36 -40 -67 -45 -95 -14 -17 18 -19 40 -22 175
-3 111 -7 154 -15 153 -7 -1 -32 -5 -56 -10z"/>
<path d="M5559 2415 c-34 -18 -41 -36 -48 -110 -6 -59 -6 -60 -39 -63 -42 -4
-37 -26 6 -30 l32 -3 0 -170 0 -169 30 0 30 0 0 169 0 170 52 3 c74 4 77 28 4
28 l-56 0 0 59 c0 71 23 108 59 96 12 -4 26 -18 31 -31 12 -31 70 -36 70 -6 0
53 -112 91 -171 57z"/>
<path d="M7477 2420 c-61 -11 -65 -15 -30 -32 l28 -13 3 -253 2 -252 30 0 30
0 0 280 c0 154 -3 279 -7 279 -5 -1 -30 -5 -56 -9z"/>
<path d="M10413 2421 c-40 -7 -70 -21 -45 -21 7 0 21 -9 32 -20 17 -17 20 -33
20 -100 0 -47 -4 -80 -10 -80 -5 0 -10 4 -10 8 0 15 -59 42 -92 42 -84 0 -138
-76 -138 -195 0 -48 7 -83 20 -112 36 -80 123 -106 194 -58 34 23 36 23 36 5
0 -16 7 -20 30 -20 l30 0 0 280 c0 218 -3 280 -12 279 -7 -1 -32 -5 -55 -8z
m-38 -225 c33 -33 49 -99 41 -170 -10 -102 -61 -155 -121 -128 -37 17 -57 73
-57 158 0 77 16 122 54 148 31 22 55 20 83 -8z"/>
<path d="M7688 2413 c-23 -6 -34 -49 -18 -68 26 -32 86 -8 78 31 -4 21 -38 42
-60 37z"/>
<path d="M8580 2400 c-24 -24 -24 -30 -7 -54 9 -12 23 -17 42 -14 25 2 31 8
33 33 3 19 -2 33 -14 42 -24 17 -30 17 -54 -7z"/>
<path d="M6600 2401 c0 -5 14 -11 30 -15 20 -4 34 -14 40 -31 6 -15 10 -130
10 -256 l0 -229 35 0 35 0 0 130 0 130 73 0 c101 0 157 28 176 88 28 91 -15
165 -108 182 -66 12 -291 13 -291 1z m288 -47 c64 -42 51 -158 -19 -183 -18
-6 -52 -11 -75 -11 l-44 0 0 100 c0 84 3 101 18 110 21 13 89 4 120 -16z"/>
<path d="M5792 2378 c-29 -29 -2 -72 40 -66 17 2 24 11 26 32 5 41 -37 63 -66
34z"/>
<path d="M5932 2378 c-29 -29 -2 -72 40 -66 17 2 24 11 26 32 5 41 -37 63 -66
34z"/>
<path d="M5770 2243 c-53 -8 -70 -14 -70 -23 0 -6 9 -10 20 -10 31 0 40 -38
40 -171 0 -120 0 -121 29 -150 49 -48 119 -39 173 25 l27 31 1 -37 c0 -35 2
-38 30 -38 l30 0 0 190 0 190 -42 -6 c-24 -4 -52 -10 -63 -14 -19 -7 -18 -9 7
-19 34 -13 42 -42 36 -129 -10 -134 -89 -221 -148 -162 -18 18 -20 33 -20 175
0 118 -3 155 -12 154 -7 -1 -24 -3 -38 -6z"/>
<path d="M6167 2240 c-62 -11 -68 -17 -30 -31 18 -6 33 -20 37 -32 3 -12 6
-86 6 -164 l0 -143 29 0 29 0 4 135 c3 122 5 136 25 156 12 12 35 22 52 23 28
1 31 4 31 34 0 21 -5 32 -15 32 -27 0 -61 -21 -78 -48 l-16 -27 -1 38 c0 23
-5 37 -12 36 -7 -1 -35 -5 -61 -9z"/>
<path d="M7125 2231 c-57 -29 -78 -69 -82 -161 -4 -64 -1 -82 19 -119 32 -62
66 -84 135 -88 43 -3 67 1 93 15 103 55 108 272 8 346 -40 29 -123 32 -173 7z
m123 -27 c38 -26 52 -67 52 -151 0 -101 -20 -144 -72 -157 -80 -20 -122 46
-116 182 3 80 4 85 36 113 36 32 67 37 100 13z"/>
<path d="M7671 2239 c-55 -11 -60 -16 -29 -28 14 -5 28 -17 32 -26 3 -9 6 -84
6 -166 l0 -149 30 0 30 0 0 190 c0 146 -3 190 -12 189 -7 -1 -33 -5 -57 -10z"/>
<path d="M8271 2232 c-61 -31 -76 -62 -76 -160 0 -109 21 -155 85 -189 61 -32
190 -31 190 3 0 9 -10 11 -34 7 -80 -13 -170 69 -183 167 l-6 40 117 0 116 0
0 30 c0 96 -114 151 -209 102z m114 -37 c14 -13 25 -33 25 -45 0 -18 -6 -20
-80 -20 -44 0 -80 2 -80 5 0 4 7 20 16 36 26 52 81 63 119 24z"/>
<path d="M8571 2239 c-56 -11 -59 -14 -24 -31 l28 -13 3 -163 2 -162 30 0 30
0 0 190 c0 146 -3 190 -12 189 -7 -1 -33 -5 -57 -10z"/>
<path d="M9337 2240 c-62 -11 -68 -17 -29 -31 l32 -11 1 -96 c1 -186 25 -242
105 -242 45 0 72 14 106 54 l27 31 1 -37 c0 -35 2 -38 30 -38 l30 0 0 190 0
190 -42 -6 c-24 -4 -52 -10 -63 -14 -19 -7 -18 -9 7 -19 32 -12 43 -55 35
-140 -11 -126 -91 -207 -147 -151 -18 18 -20 33 -20 175 0 118 -3 155 -12 154
-7 -1 -35 -5 -61 -9z"/>
<path d="M9767 2240 c-61 -11 -65 -15 -30 -32 l28 -13 3 -163 2 -162 34 0 34
0 4 124 c3 135 10 154 71 200 22 16 32 18 54 10 l28 -9 3 -163 2 -162 35 0 35
0 0 143 c0 78 -5 158 -10 178 -23 81 -145 77 -200 -6 l-20 -30 0 48 c0 31 -4
47 -12 46 -7 -1 -35 -5 -61 -9z"/>
<path d="M7840 2195 c0 -25 5 -45 10 -45 6 0 10 6 10 14 0 28 42 46 108 46 48
0 63 -3 59 -13 -2 -7 -49 -75 -102 -152 -54 -77 -100 -148 -103 -157 -4 -17 8
-18 147 -18 l151 0 0 46 0 46 -29 -31 c-28 -29 -33 -31 -105 -31 -42 0 -76 3
-76 6 0 3 46 71 101 152 56 80 104 154 107 164 4 17 -6 18 -137 18 l-141 0 0
-45z"/>
<path d="M8750 2065 l0 -25 120 0 120 0 0 25 0 25 -120 0 -120 0 0 -25z"/>
<path d="M6393 1461 c-54 -9 -63 -18 -31 -30 14 -5 28 -17 32 -26 3 -9 6 -124
6 -256 l0 -239 29 0 29 0 4 113 c3 106 5 117 33 163 39 63 78 79 106 45 17
-20 19 -41 19 -172 l0 -149 30 0 30 0 0 155 c0 169 -7 197 -51 215 -56 23
-120 -7 -157 -75 -9 -15 -11 13 -12 123 0 107 -3 142 -12 141 -7 -1 -32 -5
-55 -8z"/>
<path d="M7450 1465 c-8 -2 -33 -7 -54 -10 l-39 -6 32 -20 31 -19 0 -250 0
-250 30 0 30 0 0 91 c0 111 13 157 57 209 37 43 62 50 87 24 13 -13 16 -43 16
-170 l0 -154 36 0 36 0 -4 158 c-4 182 -13 206 -74 218 -49 9 -99 -16 -127
-63 l-22 -38 -3 143 c-1 78 -6 141 -10 141 -4 -1 -14 -3 -22 -4z"/>
<path d="M9029 1455 c-34 -18 -41 -36 -48 -110 -6 -59 -7 -60 -38 -63 -47 -5
-44 -32 2 -32 l35 0 0 -170 0 -170 30 0 30 0 0 170 0 170 50 0 c38 0 50 4 50
15 0 11 -12 15 -50 15 l-50 0 0 63 c0 50 4 68 19 81 25 23 59 13 71 -20 7 -18
17 -24 40 -24 37 0 39 18 7 56 -29 33 -106 43 -148 19z"/>
<path d="M10530 1465 c-8 -2 -33 -7 -54 -10 l-39 -6 32 -20 31 -19 0 -250 0
-250 29 0 29 0 4 108 c3 84 9 116 25 147 49 94 112 111 132 37 6 -20 11 -94
11 -164 l0 -128 30 0 30 0 0 138 c0 75 -5 154 -10 174 -26 91 -135 91 -192 1
l-23 -38 -3 143 c-1 78 -6 141 -10 141 -4 -1 -14 -3 -22 -4z"/>
<path d="M5562 1449 c-111 -21 -153 -122 -90 -212 11 -15 54 -46 96 -69 102
-56 132 -86 132 -133 0 -27 -8 -44 -29 -66 -25 -25 -37 -29 -84 -29 -30 0 -73
7 -96 15 l-41 14 0 -29 c0 -27 3 -29 56 -36 162 -20 264 38 264 149 0 73 -35
113 -158 177 -35 19 -72 45 -83 58 -38 49 -15 113 48 128 24 6 81 -2 141 -21
19 -6 22 -4 22 19 0 15 -6 28 -12 30 -32 10 -127 13 -166 5z"/>
<path d="M5878 1452 c-23 -5 -34 -48 -18 -67 30 -36 87 -6 76 39 -6 24 -28 35
-58 28z"/>
<path d="M8203 1449 c-25 -9 -31 -47 -11 -67 16 -16 53 -15 68 3 27 33 -15 81
-57 64z"/>
<path d="M8428 1373 c-19 -19 -28 -40 -28 -61 0 -29 -3 -32 -30 -32 -20 0 -30
-5 -30 -15 0 -10 10 -15 30 -15 l30 0 0 -127 c0 -198 13 -223 116 -223 32 0
44 4 44 15 0 9 -10 15 -26 15 -14 0 -34 5 -45 10 -17 10 -19 23 -19 160 l0
150 45 0 c33 0 45 4 45 14 0 11 -14 16 -47 18 l-48 3 -5 58 -5 59 -27 -29z"/>
<path d="M5861 1279 c-55 -11 -60 -16 -29 -28 14 -5 28 -17 32 -26 3 -9 6 -84
6 -166 l0 -149 30 0 30 0 0 190 c0 146 -3 190 -12 189 -7 -1 -33 -5 -57 -10z"/>
<path d="M6110 1272 c-22 -11 -44 -36 -58 -63 -20 -38 -23 -55 -19 -120 4 -93
29 -138 91 -168 42 -21 116 -27 164 -15 34 9 26 24 -12 24 -103 0 -175 83
-176 200 0 96 57 154 114 116 14 -8 27 -25 31 -36 5 -15 15 -20 41 -20 41 0
46 25 12 58 -49 45 -129 55 -188 24z"/>
<path d="M6861 1272 c-61 -31 -76 -62 -76 -160 0 -108 25 -160 90 -192 61 -29
195 -25 195 7 0 10 -8 12 -34 7 -19 -3 -50 -1 -70 6 -44 14 -102 77 -115 127
-21 75 -25 73 109 73 l120 0 -7 33 c-3 17 -12 45 -20 60 -27 54 -125 74 -192
39z m111 -32 c14 -11 28 -31 30 -45 l5 -25 -83 0 -84 0 13 33 c23 54 76 71
119 37z"/>
<path d="M7161 1279 c-56 -11 -59 -14 -24 -31 l28 -13 3 -163 2 -162 29 0 29
0 4 128 c4 135 12 161 56 182 13 6 33 8 43 5 16 -5 19 -1 19 29 0 30 -4 36
-21 36 -31 0 -58 -18 -79 -53 l-20 -32 0 43 c0 46 1 45 -69 31z"/>
<path d="M7905 1283 c-81 -21 -120 -118 -95 -237 21 -100 81 -146 190 -146 60
0 90 9 90 27 0 10 -8 12 -34 7 -87 -16 -177 64 -187 166 l-4 35 119 3 119 3
-6 35 c-14 88 -93 132 -192 107z m96 -52 c50 -50 41 -61 -51 -61 -92 0 -101
11 -51 61 37 37 65 37 102 0z"/>
<path d="M8191 1279 c-55 -11 -60 -16 -29 -28 34 -13 38 -33 38 -198 l0 -143
30 0 30 0 0 190 c0 146 -3 190 -12 189 -7 -1 -33 -5 -57 -10z"/>
<path d="M8673 1275 c-38 -16 -53 -42 -53 -88 0 -46 21 -69 105 -114 63 -34
70 -42 73 -71 2 -18 -2 -40 -8 -47 -20 -24 -77 -29 -123 -11 -54 20 -57 20
-57 -4 0 -26 36 -40 101 -40 94 0 149 41 149 111 0 48 -29 83 -99 118 -76 39
-98 63 -83 96 18 39 65 42 145 10 16 -7 18 -4 15 16 -5 37 -102 52 -165 24z"/>
<path d="M9275 1272 c-56 -27 -78 -69 -82 -162 -4 -64 -1 -82 19 -119 32 -62
66 -84 135 -88 74 -5 119 18 150 77 47 88 22 232 -49 284 -39 28 -122 32 -173
8z m124 -28 c34 -24 51 -75 51 -154 0 -89 -17 -132 -60 -150 -40 -17 -75 -5
-104 33 -25 34 -35 158 -17 218 18 61 82 86 130 53z"/>
<path d="M9621 1279 c-56 -11 -59 -14 -24 -31 l28 -13 3 -163 2 -162 29 0 29
0 4 128 c4 135 12 161 56 182 13 6 33 8 43 5 16 -5 19 -1 19 29 0 30 -4 36
-21 36 -31 0 -58 -18 -79 -53 l-20 -32 0 43 c0 46 1 45 -69 31z"/>
<path d="M9884 1274 c-32 -16 -54 -50 -54 -84 0 -42 24 -70 92 -105 37 -20 76
-48 85 -62 15 -23 15 -28 2 -52 -26 -46 -79 -51 -161 -16 -14 6 -18 2 -18 -18
0 -27 27 -37 106 -37 89 0 134 37 134 111 0 59 -16 78 -105 126 -57 31 -71 43
-73 65 -2 20 4 31 23 44 27 18 58 15 118 -11 13 -6 17 -2 17 18 0 19 -6 26
-31 31 -52 10 -102 6 -135 -10z"/>
<path d="M10220 1272 c-69 -34 -99 -120 -80 -224 17 -88 64 -135 147 -144 61
-8 123 2 123 19 0 8 -17 12 -48 12 -84 0 -143 65 -158 172 -9 70 21 138 64
148 39 8 70 -8 78 -40 5 -21 12 -25 45 -25 44 0 44 1 24 39 -28 54 -129 77
-195 43z"/>
<path d="M10921 1279 c-55 -11 -60 -16 -29 -28 35 -13 38 -26 38 -159 0 -139
15 -176 74 -188 51 -9 85 3 123 42 l33 35 0 -35 c0 -33 2 -36 30 -36 l30 0 0
190 0 190 -42 -6 c-24 -4 -52 -10 -63 -14 -17 -6 -16 -8 10 -21 29 -14 30 -17
33 -89 4 -91 -9 -139 -49 -185 -38 -42 -70 -45 -98 -9 -19 24 -21 40 -21 175
0 113 -3 149 -12 148 -7 -1 -33 -5 -57 -10z"/>
<path d="M11351 1279 c-55 -11 -60 -16 -29 -28 14 -5 28 -17 32 -26 3 -9 6
-84 6 -166 l0 -149 30 0 30 0 0 108 c0 82 5 116 19 148 34 76 104 107 135 62
13 -18 16 -53 16 -170 l0 -148 30 0 30 0 0 158 c0 180 -7 202 -61 216 -51 13
-87 1 -131 -43 l-38 -39 0 44 c0 48 2 47 -69 33z"/>
<path d="M11830 1273 c-103 -53 -109 -281 -8 -343 48 -29 109 -27 147 6 l31
26 0 -44 c0 -60 -17 -116 -40 -128 -46 -25 -130 1 -130 40 0 6 -16 10 -35 10
-43 0 -47 -25 -9 -61 21 -20 38 -24 100 -27 85 -5 125 8 151 47 15 22 19 56
23 236 5 205 5 210 28 221 40 20 36 24 -26 24 -57 0 -62 -2 -62 -22 l0 -21
-24 22 c-34 32 -100 38 -146 14z m123 -33 c61 -48 64 -215 5 -277 -39 -41
-100 -26 -124 32 -18 44 -18 156 0 199 15 36 50 66 77 66 9 0 28 -9 42 -20z"/>
</g>
</svg>
