<?xml version="1.0" encoding="UTF-8" standalone="no"?>
<!-- Generator: Adobe Illustrator 16.0.0, SVG Export Plug-In . SVG Version: 6.00 Build 0)  -->

<svg
   version="1.1"
   id="Ebene_1"
   x="0px"
   y="0px"
   preserveAspectRatio="xMidYMid"
   viewBox="0 0 360 312.328"
   enable-background="new 0 0 600 307.328"
   xml:space="preserve"
   sodipodi:docname="wzb.svg"
   width="360"
   height="312.328"
   inkscape:version="1.2.1 (9c6d41e410, 2022-07-14)"
   xmlns:inkscape="http://www.inkscape.org/namespaces/inkscape"
   xmlns:sodipodi="http://sodipodi.sourceforge.net/DTD/sodipodi-0.dtd"
   xmlns="http://www.w3.org/2000/svg"
   xmlns:svg="http://www.w3.org/2000/svg"><defs
   id="defs20" /><sodipodi:namedview
   id="namedview18"
   pagecolor="#ffffff"
   bordercolor="#000000"
   borderopacity="0.25"
   inkscape:showpageshadow="2"
   inkscape:pageopacity="0.0"
   inkscape:pagecheckerboard="0"
   inkscape:deskcolor="#d1d1d1"
   showgrid="false"
   inkscape:zoom="1.3413788"
   inkscape:cx="784.64042"
   inkscape:cy="266.14407"
   inkscape:window-width="3440"
   inkscape:window-height="1369"
   inkscape:window-x="3832"
   inkscape:window-y="183"
   inkscape:window-maximized="1"
   inkscape:current-layer="g15" />
<g
   id="g15">
	
	
	<path
   d="m 305.415,77.823 c 3.016,0 5.773,0.251 8.277,0.752 2.516,0.507 4.684,1.365 6.508,2.57 1.824,1.218 3.265,2.77 4.289,4.69 1.028,1.926 1.538,4.289 1.538,7.12 0,2.716 -0.507,5.112 -1.538,7.175 -1.031,2.069 -2.465,3.792 -4.289,5.18 -1.824,1.382 -3.992,2.43 -6.508,3.138 -2.504,0.701 -5.234,1.056 -8.185,1.056 h -7.434 v -31.68 h 7.342 z m 2.392,50.703 c 4.129,0 7.7,0.483 10.705,1.422 3.009,0.947 5.452,2.302 7.344,4.07 1.887,1.764 3.285,3.922 4.2,6.461 0.913,2.539 1.376,5.433 1.376,8.666 0,3.6 -0.678,6.589 -2.035,8.938 -1.362,2.362 -3.183,4.254 -5.484,5.663 -2.3,1.416 -4.941,2.41 -7.92,2.969 -2.974,0.561 -6.092,0.844 -9.335,0.844 h -8.584 V 128.526 Z M 273.026,58 c -3.832,0 -6.885,0.164 -9.154,0.49 -2.264,0.323 -3.982,0.946 -5.134,1.854 -1.149,0.916 -1.888,2.168 -2.212,3.761 -0.333,1.593 -0.497,3.663 -0.497,6.188 v 2.219 l 13.012,2.829 v 94.33 l -2.743,0.708 c -2.127,0.524 -3.862,1.089 -5.218,1.682 -1.361,0.585 -2.437,1.307 -3.232,2.165 -0.8,0.857 -1.369,1.919 -1.682,3.185 -0.327,1.267 -0.486,2.846 -0.486,4.731 v 5.222 h 54.599 c 8.2,0 15.32,-0.947 21.372,-2.832 6.047,-1.893 11.062,-4.514 15.044,-7.884 3.981,-3.361 6.936,-7.357 8.893,-11.986 1.95,-4.629 2.921,-9.721 2.921,-15.262 0,-3.9 -0.534,-7.393 -1.593,-10.49 -1.062,-3.097 -2.536,-5.854 -4.432,-8.271 -1.883,-2.424 -4.183,-4.52 -6.896,-6.29 -2.713,-1.772 -5.694,-3.271 -8.941,-4.513 2.835,-1.709 5.289,-3.677 7.352,-5.885 2.063,-2.212 3.74,-4.561 5.041,-7.038 1.297,-2.479 2.249,-5.024 2.876,-7.652 0.619,-2.627 0.93,-5.18 0.93,-7.658 0,-5.302 -1.05,-10.04 -3.142,-14.203 -2.098,-4.152 -5.149,-7.675 -9.156,-10.567 -4.01,-2.89 -8.928,-5.089 -14.737,-6.6 C 320.003,58.739 313.352,58 305.857,58 Z m -111.585,0 v 12.56 c 0,3.842 0.181,6.895 0.531,9.158 0.354,2.271 0.977,3.989 1.902,5.14 0.911,1.15 2.168,1.886 3.761,2.212 1.589,0.327 3.624,0.483 6.105,0.483 h 2.213 l 2.216,-10.17 h 32.558 l -51.584,97.43 0.704,12.563 h 86.547 v -12.655 c 0,-3.839 -0.164,-6.889 -0.487,-9.163 -0.333,-2.267 -0.946,-3.981 -1.857,-5.132 -0.927,-1.15 -2.169,-1.885 -3.762,-2.212 -1.592,-0.326 -3.658,-0.494 -6.191,-0.494 h -2.12 l -2.123,9.826 h -36.908 l 44.338,-85.477 c 1.115,-2.179 1.987,-4.187 2.606,-6.018 0.62,-1.831 1.049,-3.496 1.283,-5.003 0.234,-1.51 0.351,-2.862 0.351,-4.07 0,-1.215 -0.058,-2.314 -0.17,-3.318 L 240.556,58 Z M 49.467,58 H 17.079 c -3.836,0 -6.893,0.164 -9.159,0.49 -2.271,0.32 -4,0.942 -5.177,1.854 C 1.562,61.26 0.813,62.513 0.487,64.106 0.163,65.699 0,67.768 0,70.297 v 2.219 l 10.177,2.035 21.061,112.829 h 14.159 c 1.178,0 2.39,-0.075 3.628,-0.218 1.232,-0.144 2.431,-0.511 3.574,-1.103 1.15,-0.586 2.223,-1.505 3.186,-2.744 0.98,-1.235 1.763,-2.954 2.355,-5.139 l 17.875,-68.044 20.795,77.253 h 14.425 c 1.068,0 2.199,-0.074 3.413,-0.218 1.209,-0.142 2.346,-0.523 3.408,-1.15 1.064,-0.619 2.035,-1.544 2.92,-2.783 0.884,-1.238 1.562,-2.928 2.035,-5.051 L 141.854,75.075 c 0.118,0 0.233,-0.027 0.359,-0.082 2.066,-0.528 3.765,-1.089 5.134,-1.678 1.354,-0.589 2.433,-1.313 3.232,-2.167 0.797,-0.858 1.355,-1.917 1.679,-3.189 0.323,-1.26 0.486,-2.838 0.486,-4.728 V 58 h -29.55 c -3.842,0 -6.896,0.164 -9.169,0.49 -2.261,0.323 -3.993,0.946 -5.167,1.854 -1.181,0.916 -1.937,2.168 -2.253,3.761 -0.33,1.593 -0.49,3.663 -0.49,6.188 v 2.219 l 11.062,2.212 -10.354,60.887 L 83.275,58 H 69.028 c -0.306,1.232 -0.8,3.158 -1.511,5.745 -0.708,2.597 -1.545,5.636 -2.522,9.118 -0.977,3.482 -2.035,7.271 -3.186,11.368 -1.15,4.105 -2.318,8.271 -3.496,12.526 -1.181,4.248 -2.345,8.427 -3.495,12.524 -1.151,4.104 -2.223,7.89 -3.186,11.375 -0.97,3.478 -1.817,6.535 -2.529,9.156 -0.701,2.627 -1.211,4.56 -1.504,5.8 L 36.459,75.613 38.855,74.99 c 2.116,-0.528 3.859,-1.089 5.221,-1.678 1.355,-0.589 2.423,-1.313 3.23,-2.168 0.793,-0.857 1.358,-1.917 1.678,-3.189 0.327,-1.26 0.49,-2.838 0.49,-4.728 z"
   id="path13"
   sodipodi:nodetypes="ccccscccsccccscccscccsccsscccscccccccscscccscccccccscccsscscccsccccccscccsccccccsccccscccscccsccccccscccccccccscscccsccccccsccccccccccccc" />
</g>
</svg>
