<?xml version="1.0" standalone="no"?>
<!DOCTYPE svg PUBLIC "-//W3C//DTD SVG 20010904//EN"
 "http://www.w3.org/TR/2001/REC-SVG-20010904/DTD/svg10.dtd">
<svg version="1.0" xmlns="http://www.w3.org/2000/svg"
 width="400.000000pt" height="400.000000pt" viewBox="0 0 400.000000 400.000000"
 preserveAspectRatio="xMidYMid meet">

<g transform="translate(0.000000,400.000000) scale(0.100000,-0.100000)"
fill="#000000" stroke="none">
<path d="M612 3124 c-16 -11 -22 -25 -22 -53 0 -35 2 -38 37 -47 l38 -9 77
-415 c42 -228 77 -418 78 -422 0 -5 34 -8 75 -8 67 0 79 3 100 24 13 13 27 37
31 53 44 180 132 495 136 487 2 -5 38 -134 78 -286 l74 -278 69 0 c72 0 101 9
116 38 5 10 37 168 71 352 33 184 66 361 72 392 9 52 14 59 47 75 33 17 36 22
39 66 l3 47 -149 0 c-170 0 -188 -7 -194 -70 -3 -33 -1 -35 39 -44 36 -7 42
-12 38 -30 -3 -11 -18 -104 -35 -206 -17 -102 -34 -193 -38 -202 -5 -12 -37
84 -92 267 l-85 285 -57 0 c-39 0 -58 -4 -58 -12 0 -15 -153 -559 -156 -555
-1 1 -19 90 -38 197 -20 107 -39 205 -41 217 -4 17 1 24 30 33 43 14 65 44 65
87 l0 33 -163 0 c-131 0 -167 -3 -185 -16z"/>
<path d="M1800 3050 c0 -104 15 -130 74 -130 32 0 35 2 41 40 l7 40 119 0 c65
0 119 -4 119 -9 0 -4 -85 -170 -190 -367 -169 -320 -190 -364 -190 -406 l0
-48 324 0 c292 0 325 2 328 16 2 9 1 55 -2 101 -6 94 -12 103 -72 103 -31 0
-38 -4 -38 -19 0 -50 -4 -51 -146 -51 -74 0 -134 3 -134 6 0 4 33 70 74 148
284 545 298 576 282 641 l-6 25 -295 0 -295 0 0 -90z"/>
<path d="M2543 3123 c-19 -16 -28 -43 -24 -80 1 -6 20 -16 44 -20 l42 -9 3
-356 2 -356 -30 -7 c-39 -9 -70 -49 -70 -91 l0 -34 240 0 c139 0 261 5 292 11
112 24 201 94 226 178 19 61 15 156 -7 200 -18 35 -82 101 -99 101 -4 0 -13 4
-21 9 -12 8 -8 15 19 37 47 40 80 116 80 184 -1 102 -57 181 -160 222 -50 20
-76 23 -285 26 -212 3 -233 2 -252 -15z m468 -171 c69 -78 12 -186 -101 -192
-86 -5 -80 -14 -80 116 l0 116 76 -4 c71 -3 78 -6 105 -36z m-5 -361 c48 -22
74 -68 74 -131 0 -93 -61 -139 -182 -140 l-68 0 0 145 0 145 68 0 c43 0 81 -7
108 -19z"/>
<path d="M863 1390 c-168 -23 -218 -99 -217 -325 0 -114 3 -137 24 -184 46
-104 128 -137 326 -129 95 4 127 9 159 25 102 53 129 122 123 315 -3 118 -6
139 -28 183 -27 54 -71 89 -129 104 -56 15 -189 20 -258 11z"/>
<path d="M1840 1386 c-148 -33 -191 -104 -191 -317 0 -186 42 -268 157 -304
82 -26 303 -18 360 12 96 51 119 108 119 299 0 136 -1 142 -30 199 -24 47 -39
63 -75 82 -83 42 -225 55 -340 29z"/>
</g>
</svg>
